<svg width="58" height="57" viewBox="0 0 58 57" fill="none" xmlns="http://www.w3.org/2000/svg">
<path d="M9.66683 47.5C8.33766 47.5 7.19982 47.0349 6.25329 46.1047C5.30676 45.1745 4.8335 44.0562 4.8335 42.75V14.25C4.8335 12.9437 5.30676 11.8255 6.25329 10.8953C7.19982 9.9651 8.33766 9.5 9.66683 9.5H48.3335C49.6627 9.5 50.8005 9.9651 51.747 10.8953C52.6936 11.8255 53.1668 12.9437 53.1668 14.25V42.75C53.1668 44.0562 52.6936 45.1745 51.747 46.1047C50.8005 47.0349 49.6627 47.5 48.3335 47.5H9.66683ZM29.0002 30.875L9.66683 19V42.75H48.3335V19L29.0002 30.875ZM29.0002 26.125L48.3335 14.25H9.66683L29.0002 26.125ZM9.66683 19V14.25V42.75V19Z" fill="white"/>
</svg>
