<svg width="433" height="400" viewBox="0 0 433 400" fill="none" xmlns="http://www.w3.org/2000/svg">
<g filter="url(#filter0_d_6580_43)">
<path d="M284.518 85.2428C300.718 115.199 307.889 140.484 337.102 172.639C366.316 204.794 417.837 244.095 427.398 286.144C436.693 327.918 404.293 372.99 362.332 386.731C320.371 400.473 268.849 383.433 220.248 379.586C171.648 375.463 125.968 384.808 85.0695 370.791C44.1706 356.5 8.31772 318.574 4.33406 277.074C0.615984 235.3 28.7672 189.953 47.3576 144.606C66.2135 99.2592 75.5087 54.4619 102.332 27.8033C129.155 1.14481 173.241 -7.1001 208.032 6.36658C243.088 19.8333 268.318 55.0115 284.518 85.2428Z" fill="white"/>
<path d="M284.078 85.4807L284.077 85.479C267.887 55.2665 242.73 20.2314 207.852 6.83332L207.851 6.83287C173.237 -6.56569 129.362 1.64467 102.684 28.158C89.3479 41.4126 80.3489 59.1974 72.3216 79.3813C68.7982 88.2406 65.4665 97.5499 62.0367 107.133C61.5602 108.465 61.0818 109.801 60.6008 111.143C56.6586 122.136 52.5388 133.448 47.8199 144.797C43.3482 155.704 38.3246 166.61 33.329 177.455C33.1271 177.894 32.9253 178.332 32.7236 178.77C27.5276 190.052 22.3873 201.266 17.9443 212.366C9.05567 234.572 2.98411 256.262 4.83195 277.028C8.79348 318.288 44.4732 356.076 85.2335 370.319C105.6 377.298 127.174 378.467 149.769 378.399C155.751 378.381 161.807 378.275 167.929 378.169C184.909 377.875 202.407 377.571 220.288 379.087C220.289 379.087 220.29 379.088 220.29 379.088L220.248 379.586C234.979 380.752 249.979 383.13 264.9 385.496C299.204 390.935 333.09 396.308 362.332 386.731C404.293 372.99 436.693 327.918 427.398 286.144L284.078 85.4807ZM284.078 85.4807C288.365 93.4081 292.024 101.021 295.632 108.529C305.623 129.318 315.23 149.308 336.732 172.975C344.047 181.027 352.757 189.524 361.842 198.384L361.913 198.454C370.98 207.297 380.423 216.506 389.253 226.021C406.973 245.113 422.161 265.367 426.91 286.252L284.078 85.4807Z" stroke="#FFD93D"/>
</g>
<defs>
<filter id="filter0_d_6580_43" x="0" y="0" width="433" height="400" filterUnits="userSpaceOnUse" color-interpolation-filters="sRGB">
<feFlood flood-opacity="0" result="BackgroundImageFix"/>
<feColorMatrix in="SourceAlpha" type="matrix" values="0 0 0 0 0 0 0 0 0 0 0 0 0 0 0 0 0 0 127 0" result="hardAlpha"/>
<feOffset dy="4"/>
<feGaussianBlur stdDeviation="2"/>
<feComposite in2="hardAlpha" operator="out"/>
<feColorMatrix type="matrix" values="0 0 0 0 0 0 0 0 0 0 0 0 0 0 0 0 0 0 0.25 0"/>
<feBlend mode="normal" in2="BackgroundImageFix" result="effect1_dropShadow_6580_43"/>
<feBlend mode="normal" in="SourceGraphic" in2="effect1_dropShadow_6580_43" result="shape"/>
</filter>
</defs>
</svg>
